# xmcd
#
# Track frame offsets:
#	150
#	17267
#	35755
#	47314
#	62837
#	83255
#	98595
#	115577
#	128570
#	145005
#
# Disc length: 2159 seconds
#
# Revision: 1
# Processed by: cddbd v1.5.1PL2 Copyright (c) Steve Scherf et al.
# Submitted via: audiograbber 1.83.01
#
DISCID=67086d0a
DTITLE=Tom Sadge - Tom Sadge Sings Neil Diamond
DYEAR=1900
DGENRE=Ballad
TTITLE0=I Am I Said
TTITLE1=Brother Loves Travelling Salvation Show
TTITLE2=Solitary Man
TTITLE3=Forever In Blue Jeans
TTITLE4=America
TTITLE5=Girl You´ll Be A Woman Soon
TTITLE6=Marry Me
TTITLE7=Cherry Cherry
TTITLE8=Hello Again
TTITLE9=Sweet Caroline
EXTD=
EXTT0=
EXTT1=
EXTT2=
EXTT3=
EXTT4=
EXTT5=
EXTT6=
EXTT7=
EXTT8=
EXTT9=
PLAYORDER=
